<?xml version="1.0" encoding="UTF-8" standalone="no"?>
<!-- Created with Inkscape (http://www.inkscape.org/) -->

<svg
   width="39.158283mm"
   height="39.158283mm"
   viewBox="0 0 39.158283 39.158283"
   version="1.1"
   id="svg1"
   inkscape:version="1.4 (e7c3feb1, 2024-10-09)"
   sodipodi:docname="RepoQRCode.svg"
   xmlns:inkscape="http://www.inkscape.org/namespaces/inkscape"
   xmlns:sodipodi="http://sodipodi.sourceforge.net/DTD/sodipodi-0.dtd"
   xmlns="http://www.w3.org/2000/svg"
   xmlns:svg="http://www.w3.org/2000/svg">
  <sodipodi:namedview
     id="namedview1"
     pagecolor="#505050"
     bordercolor="#eeeeee"
     borderopacity="1"
     inkscape:showpageshadow="0"
     inkscape:pageopacity="0"
     inkscape:pagecheckerboard="0"
     inkscape:deskcolor="#505050"
     inkscape:document-units="mm"
     inkscape:zoom="1.2698708"
     inkscape:cx="74.023276"
     inkscape:cy="57.879902"
     inkscape:window-width="1440"
     inkscape:window-height="796"
     inkscape:window-x="0"
     inkscape:window-y="25"
     inkscape:window-maximized="1"
     inkscape:current-layer="layer1" />
  <defs
     id="defs1" />
  <g
     inkscape:label="Layer 1"
     inkscape:groupmode="layer"
     id="layer1"
     transform="translate(-105.833,-145.521)">
    <g
       inkscape:label="QR Code: https://github.com/QLS-MiCM/DataProcessingInPython"
       id="workshop-qr-code"
       transform="matrix(0.264583,0,0,0.264583,105.833,145.521)">
      <rect
         x="0"
         y="0"
         width="148"
         height="148"
         style="fill:#ffffff;stroke:none"
         id="rect1" />
      <g
         style="fill:#000000;stroke:none"
         id="g1">
        <path
           d="m 123.6,132 h -3.2 c -0.221,0 -0.4,-0.179 -0.4,-0.4 v -3.2 c 0,-0.221 -0.179,-0.4 -0.4,-0.4 H 116 v -3.6 c 0,-0.221 -0.179,-0.4 -0.4,-0.4 h -3.2 c -0.221,0 -0.4,0.179 -0.4,0.4 v 3.2 c 0,0.221 0.179,0.4 0.4,0.4 h 3.6 v 3.6 c 0,0.221 -0.179,0.4 -0.4,0.4 h -11.2 c -0.221,0 -0.4,-0.179 -0.4,-0.4 v -7.2 c 0,-0.221 -0.179,-0.4 -0.4,-0.4 H 92 v -3.6 C 92,120.179 91.8209,120 91.6,120 H 88.4 C 88.1791,120 88,119.821 88,119.6 V 116 h 3.6 c 0.2209,0 0.4,-0.179 0.4,-0.4 V 104 h 3.6 c 0.2209,0 0.4,-0.179 0.4,-0.4 v -3.2 c 0,-0.221 -0.1791,-0.4 -0.4,-0.4 h -3.2 c -0.2209,0 -0.4,0.179 -0.4,0.4 v 3.6 h -3.6 c -0.2209,0 -0.4,0.179 -0.4,0.4 v 3.2 c 0,0.221 -0.1791,0.4 -0.4,0.4 H 84 V 96.4 C 84,96.1791 84.1791,96 84.4,96 H 95.6 C 95.8209,96 96,95.8209 96,95.6 V 92 h 3.6 c 0.2209,0 0.4,0.1791 0.4,0.4 v 3.2 c 0,0.2209 0.179,0.4 0.4,0.4 h 3.2 c 0.221,0 0.4,-0.1791 0.4,-0.4 v -3.2 c 0,-0.2209 0.179,-0.4 0.4,-0.4 h 3.2 c 0.221,0 0.4,0.1791 0.4,0.4 v 3.2 c 0,0.2209 0.179,0.4 0.4,0.4 h 7.2 c 0.221,0 0.4,0.1791 0.4,0.4 v 3.2 c 0,0.2209 0.179,0.4 0.4,0.4 h 3.6 v 3.6 c 0,0.221 0.179,0.4 0.4,0.4 h 3.2 c 0.221,0 0.4,0.179 0.4,0.4 v 3.2 c 0,0.221 -0.179,0.4 -0.4,0.4 h -7.2 c -0.221,0 -0.4,0.179 -0.4,0.4 v 3.2 c 0,0.221 0.179,0.4 0.4,0.4 h 3.2 c 0.221,0 0.4,0.179 0.4,0.4 v 3.2 c 0,0.221 0.179,0.4 0.4,0.4 h 3.2 c 0.221,0 0.4,-0.179 0.4,-0.4 v -3.2 c 0,-0.221 0.179,-0.4 0.4,-0.4 h 3.2 c 0.221,0 0.4,-0.179 0.4,-0.4 v -3.2 c 0,-0.221 0.179,-0.4 0.4,-0.4 h 3.2 c 0.221,0 0.4,0.179 0.4,0.4 v 11.2 c 0,0.221 -0.179,0.4 -0.4,0.4 h -3.2 c -0.221,0 -0.4,0.179 -0.4,0.4 v 3.6 h -3.6 c -0.221,0 -0.4,0.179 -0.4,0.4 v 7.2 c 0,0.221 -0.179,0.4 -0.4,0.4 z m -28,0 H 92.4 C 92.1791,132 92,131.821 92,131.6 V 128 h 3.6 c 0.2209,0 0.4,0.179 0.4,0.4 v 3.2 c 0,0.221 -0.1791,0.4 -0.4,0.4 z m -8,0 H 84.4 C 84.1791,132 84,131.821 84,131.6 V 128 h 4 v 3.6 c 0,0.221 -0.1791,0.4 -0.4,0.4 z m -8,0 H 60.4 c -0.2209,0 -0.4,-0.179 -0.4,-0.4 v -3.2 c 0,-0.221 -0.1791,-0.4 -0.4,-0.4 h -3.2 c -0.2209,0 -0.4,0.179 -0.4,0.4 v 3.2 c 0,0.221 -0.1791,0.4 -0.4,0.4 h -7.2 c -0.2209,0 -0.4,-0.179 -0.4,-0.4 v -7.2 c 0,-0.221 0.1791,-0.4 0.4,-0.4 h 7.2 c 0.2209,0 0.4,-0.179 0.4,-0.4 v -7.2 c 0,-0.221 -0.1791,-0.4 -0.4,-0.4 h -3.2 c -0.2209,0 -0.4,-0.179 -0.4,-0.4 v -3.2 c 0,-0.221 -0.1791,-0.4 -0.4,-0.4 h -3.2 c -0.2209,0 -0.4,-0.179 -0.4,-0.4 v -11.2 c 0,-0.221 0.1791,-0.4 0.4,-0.4 h 3.2 c 0.2209,0 0.4,-0.1791 0.4,-0.4 V 96.4 C 52,96.1791 51.8209,96 51.6,96 H 48.4 C 48.1791,96 48,95.8209 48,95.6 V 92.4 C 48,92.1791 48.1791,92 48.4,92 h 3.2 C 51.8209,92 52,91.8209 52,91.6 V 88 h 4 v 7.6 c 0,0.2209 0.1791,0.4 0.4,0.4 H 64 v 8 h -3.6 c -0.2209,0 -0.4,-0.179 -0.4,-0.4 v -3.2 c 0,-0.221 -0.1791,-0.4 -0.4,-0.4 h -3.2 c -0.2209,0 -0.4,0.179 -0.4,0.4 v 3.2 c 0,0.221 -0.1791,0.4 -0.4,0.4 h -3.2 c -0.2209,0 -0.4,0.179 -0.4,0.4 v 3.2 c 0,0.221 0.1791,0.4 0.4,0.4 h 3.2 c 0.2209,0 0.4,0.179 0.4,0.4 v 3.2 c 0,0.221 0.1791,0.4 0.4,0.4 H 64 v 3.6 c 0,0.221 -0.1791,0.4 -0.4,0.4 h -3.2 c -0.2209,0 -0.4,0.179 -0.4,0.4 v 7.2 c 0,0.221 0.1791,0.4 0.4,0.4 H 64 v 3.6 c 0,0.221 0.1791,0.4 0.4,0.4 H 80 v 3.6 c 0,0.221 -0.1791,0.4 -0.4,0.4 z m -36,0 H 16.4 c -0.2209,0 -0.4,-0.179 -0.4,-0.4 v -27.2 c 0,-0.221 0.1791,-0.4 0.4,-0.4 h 27.2 c 0.2209,0 0.4,0.179 0.4,0.4 v 27.2 c 0,0.221 -0.1791,0.4 -0.4,0.4 z m 88,-4 h -3.2 c -0.221,0 -0.4,-0.179 -0.4,-0.4 V 124 h 3.6 c 0.221,0 0.4,0.179 0.4,0.4 v 3.2 c 0,0.221 -0.179,0.4 -0.4,0.4 z m -40,0 H 88 v -3.6 c 0,-0.221 0.1791,-0.4 0.4,-0.4 H 92 v 4 z m -8,0 H 80 v -3.6 C 80,124.179 79.8209,124 79.6,124 H 76.4 C 76.1791,124 76,123.821 76,123.6 V 112 h 4 v 3.6 c 0,0.221 0.1791,0.4 0.4,0.4 H 84 v 12 z M 40,127.6 V 108.4 C 40,108.179 39.8209,108 39.6,108 H 20.4 c -0.2209,0 -0.4,0.179 -0.4,0.4 v 19.2 c 0,0.221 0.1791,0.4 0.4,0.4 h 19.2 c 0.2209,0 0.4,-0.179 0.4,-0.4 z M 67.6,124 H 64 v -3.6 c 0,-0.221 0.1791,-0.4 0.4,-0.4 H 68 v 3.6 c 0,0.221 -0.1791,0.4 -0.4,0.4 z m -32,0 H 24.4 c -0.2209,0 -0.4,-0.179 -0.4,-0.4 v -11.2 c 0,-0.221 0.1791,-0.4 0.4,-0.4 h 11.2 c 0.2209,0 0.4,0.179 0.4,0.4 v 11.2 c 0,0.221 -0.1791,0.4 -0.4,0.4 z m 80.4,-4.4 v -3.2 c 0,-0.221 -0.179,-0.4 -0.4,-0.4 h -11.2 c -0.221,0 -0.4,0.179 -0.4,0.4 v 3.2 c 0,0.221 0.179,0.4 0.4,0.4 h 11.2 c 0.221,0 0.4,-0.179 0.4,-0.4 z M 71.6,120 H 68 v -8 h 4 v 7.6 c 0,0.221 -0.1791,0.4 -0.4,0.4 z m 16,-4 H 84 v -4 h 3.6 c 0.2209,0 0.4,0.179 0.4,0.4 v 3.6 z m 24.4,-4.4 v -11.2 c 0,-0.221 -0.179,-0.4 -0.4,-0.4 h -11.2 c -0.221,0 -0.4,0.179 -0.4,0.4 v 11.2 c 0,0.221 0.179,0.4 0.4,0.4 h 11.2 c 0.221,0 0.4,-0.179 0.4,-0.4 z M 83.6,112 H 80 v -4 h 4 v 4 z m -8,0 H 72 v -3.6 c 0,-0.221 -0.1791,-0.4 -0.4,-0.4 h -3.2 c -0.2209,0 -0.4,0.179 -0.4,0.4 v 3.6 h -4 v -8 h 7.6 c 0.2209,0 0.4,-0.179 0.4,-0.4 v -3.2 C 72,100.179 71.8209,100 71.6,100 H 68.4 C 68.1791,100 68,99.8209 68,99.6 V 96 h 11.6 c 0.2209,0 0.4,0.1791 0.4,0.4 V 108 h -3.6 c -0.2209,0 -0.4,0.179 -0.4,0.4 v 3.6 z m 32,-4 h -3.2 c -0.221,0 -0.4,-0.179 -0.4,-0.4 v -3.2 c 0,-0.221 0.179,-0.4 0.4,-0.4 h 3.2 c 0.221,0 0.4,0.179 0.4,0.4 v 3.2 c 0,0.221 -0.179,0.4 -0.4,0.4 z m 24,-8 H 120 v -3.6 c 0,-0.2209 0.179,-0.4 0.4,-0.4 h 11.2 c 0.221,0 0.4,0.1791 0.4,0.4 v 3.2 c 0,0.2209 -0.179,0.4 -0.4,0.4 z m -88,0 H 32.4 C 32.1791,100 32,99.8209 32,99.6 V 96.4 C 32,96.1791 31.8209,96 31.6,96 H 28.4 C 28.1791,96 28,95.8209 28,95.6 V 92.4 C 28,92.1791 27.8209,92 27.6,92 H 20.4 C 20.1791,92 20,92.1791 20,92.4 v 7.2 c 0,0.2209 -0.1791,0.4 -0.4,0.4 H 16.4 C 16.1791,100 16,99.8209 16,99.6 V 84.4 C 16,84.1791 16.1791,84 16.4,84 h 3.2 c 0.2209,0 0.4,0.1791 0.4,0.4 v 3.2 c 0,0.2209 0.1791,0.4 0.4,0.4 h 3.2 C 23.8209,88 24,87.8209 24,87.6 V 76 h 4 v 11.6 c 0,0.2209 0.1791,0.4 0.4,0.4 H 32 v 3.6 c 0,0.2209 0.1791,0.4 0.4,0.4 H 36 v 3.6 c 0,0.2209 0.1791,0.4 0.4,0.4 h 7.2 c 0.2209,0 0.4,0.1791 0.4,0.4 v 3.2 c 0,0.2209 -0.1791,0.4 -0.4,0.4 z m 24,-4 H 64 v -4 h 3.6 c 0.2209,0 0.4,0.1791 0.4,0.4 V 96 Z m 64,-4 h -3.2 C 128.179,92 128,91.8209 128,91.6 V 88.4 C 128,88.1791 127.821,88 127.6,88 H 120 V 84.4 C 120,84.1791 119.821,84 119.6,84 H 116 v -4 h 3.6 c 0.221,0 0.4,-0.1791 0.4,-0.4 v -3.2 c 0,-0.2209 -0.179,-0.4 -0.4,-0.4 h -3.2 c -0.221,0 -0.4,0.1791 -0.4,0.4 V 80 h -3.6 c -0.221,0 -0.4,0.1791 -0.4,0.4 v 3.2 c 0,0.2209 0.179,0.4 0.4,0.4 h 3.6 v 3.6 c 0,0.2209 0.179,0.4 0.4,0.4 h 3.6 v 3.6 c 0,0.2209 -0.179,0.4 -0.4,0.4 h -7.2 c -0.221,0 -0.4,-0.1791 -0.4,-0.4 v -3.2 c 0,-0.2209 -0.179,-0.4 -0.4,-0.4 h -7.2 C 104.179,88 104,87.8209 104,87.6 V 84 h 3.6 c 0.221,0 0.4,-0.1791 0.4,-0.4 v -7.2 c 0,-0.2209 0.179,-0.4 0.4,-0.4 h 3.2 c 0.221,0 0.4,-0.1791 0.4,-0.4 V 72.4 C 112,72.1791 111.821,72 111.6,72 H 104 v -8 h 7.6 c 0.221,0 0.4,0.1791 0.4,0.4 v 3.2 c 0,0.2209 0.179,0.4 0.4,0.4 h 3.2 c 0.221,0 0.4,0.1791 0.4,0.4 v 3.2 c 0,0.2209 0.179,0.4 0.4,0.4 h 7.6 v 11.6 c 0,0.2209 0.179,0.4 0.4,0.4 h 7.2 c 0.221,0 0.4,0.1791 0.4,0.4 v 7.2 c 0,0.2209 -0.179,0.4 -0.4,0.4 z m -36,0 H 92.4 C 92.1791,92 92,91.8209 92,91.6 V 88.4 C 92,88.1791 91.8209,88 91.6,88 H 88.4 C 88.1791,88 88,88.1791 88,88.4 v 3.2 C 88,91.8209 87.8209,92 87.6,92 H 84.4 C 84.1791,92 84,91.8209 84,91.6 V 88.4 C 84,88.1791 83.8209,88 83.6,88 H 80 V 84.4 C 80,84.1791 79.8209,84 79.6,84 H 72.4 C 72.1791,84 72,84.1791 72,84.4 v 3.2 C 72,87.8209 71.8209,88 71.6,88 H 68.4 C 68.1791,88 68,87.8209 68,87.6 V 80.4 C 68,80.1791 68.1791,80 68.4,80 H 79.6 C 79.8209,80 80,79.8209 80,79.6 V 76 h 4 v 7.6 c 0,0.2209 0.1791,0.4 0.4,0.4 h 7.2 C 91.8209,84 92,83.8209 92,83.6 V 76 h 4 v 16 z m -16,0 H 76.4 C 76.1791,92 76,91.8209 76,91.6 V 88.4 C 76,88.1791 76.1791,88 76.4,88 H 80 v 3.6 c 0,0.2209 -0.1791,0.4 -0.4,0.4 z m -16,0 H 60.4 C 60.1791,92 60,91.8209 60,91.6 V 88.4 C 60,88.1791 59.8209,88 59.6,88 H 56 V 80.4 C 56,80.1791 55.8209,80 55.6,80 H 52.4 C 52.1791,80 52,79.8209 52,79.6 V 76 h 3.6 C 55.8209,76 56,75.8209 56,75.6 V 72 h 4 v 11.6 c 0,0.2209 0.1791,0.4 0.4,0.4 h 3.2 c 0.2209,0 0.4,0.1791 0.4,0.4 V 92 Z m -20,0 H 36 V 88.4 C 36,88.1791 35.8209,88 35.6,88 H 32 V 80.4 C 32,80.1791 32.1791,80 32.4,80 h 3.2 c 0.2209,0 0.4,0.1791 0.4,0.4 v 3.2 c 0,0.2209 0.1791,0.4 0.4,0.4 H 40 v 3.6 c 0,0.2209 0.1791,0.4 0.4,0.4 H 44 v 3.6 c 0,0.2209 -0.1791,0.4 -0.4,0.4 z m 8,-4 H 44 V 84.4 C 44,84.1791 43.8209,84 43.6,84 H 40 V 80.4 C 40,80.1791 40.1791,80 40.4,80 h 3.2 C 43.8209,80 44,79.8209 44,79.6 V 76 h 4 v 7.6 c 0,0.2209 0.1791,0.4 0.4,0.4 h 3.2 c 0.2209,0 0.4,0.1791 0.4,0.4 V 88 Z m 52,-4 h -3.2 c -0.221,0 -0.4,-0.1791 -0.4,-0.4 v -3.2 c 0,-0.2209 0.179,-0.4 0.4,-0.4 h 3.2 c 0.221,0 0.4,0.1791 0.4,0.4 V 84 Z m 28,-4 h -3.2 c -0.221,0 -0.4,-0.1791 -0.4,-0.4 v -3.2 c 0,-0.2209 0.179,-0.4 0.4,-0.4 h 3.2 c 0.221,0 0.4,0.1791 0.4,0.4 v 3.2 c 0,0.2209 -0.179,0.4 -0.4,0.4 z m -28,-4 H 96 v -8 h 3.6 c 0.2209,0 0.4,0.1791 0.4,0.4 v 3.2 c 0,0.2209 0.179,0.4 0.4,0.4 h 3.6 v 3.6 c 0,0.2209 -0.179,0.4 -0.4,0.4 z m -12,0 H 84 v -4 h 3.6 C 87.8209,72 88,71.8209 88,71.6 V 68 h 4 v 8 z m -12,0 H 76.4 C 76.1791,76 76,75.8209 76,75.6 V 64.4 C 76,64.1791 75.8209,64 75.6,64 H 72.4 C 72.1791,64 72,63.8209 72,63.6 V 60 h 3.6 C 75.8209,60 76,59.8209 76,59.6 V 52 h 3.6 c 0.2209,0 0.4,0.1791 0.4,0.4 v 15.2 c 0,0.2209 0.1791,0.4 0.4,0.4 H 84 v 4 H 80.4 C 80.1791,72 80,72.1791 80,72.4 V 76 Z m -12,0 H 64.4 C 64.1791,76 64,75.8209 64,75.6 V 72 h 4 v 3.6 c 0,0.2209 -0.1791,0.4 -0.4,0.4 z m -16,0 H 48 v -8 h 3.6 C 51.8209,68 52,67.8209 52,67.6 V 60 h 4 V 72 H 52.4 C 52.1791,72 52,72.1791 52,72.4 V 76 Z m -8,0 H 36.4 C 36.1791,76 36,75.8209 36,75.6 V 72.4 C 36,72.1791 35.8209,72 35.6,72 H 32.4 C 32.1791,72 32,72.1791 32,72.4 v 3.2 C 32,75.8209 31.8209,76 31.6,76 H 28 V 72.4 C 28,72.1791 27.8209,72 27.6,72 H 24 V 68.4 C 24,68.1791 23.8209,68 23.6,68 H 16.4 C 16.1791,68 16,67.8209 16,67.6 V 64.4 C 16,64.1791 16.1791,64 16.4,64 h 3.2 C 19.8209,64 20,63.8209 20,63.6 V 60.4 C 20,60.1791 19.8209,60 19.6,60 H 16.4 C 16.1791,60 16,59.8209 16,59.6 V 48.4 C 16,48.1791 16.1791,48 16.4,48 h 7.2 c 0.2209,0 0.4,0.1791 0.4,0.4 v 3.2 c 0,0.2209 0.1791,0.4 0.4,0.4 H 36 V 63.6 C 36,63.8209 35.8209,64 35.6,64 H 32 V 56.4 C 32,56.1791 31.8209,56 31.6,56 H 28.4 C 28.1791,56 28,56.1791 28,56.4 v 3.2 C 28,59.8209 27.8209,60 27.6,60 H 24.4 C 24.1791,60 24,60.1791 24,60.4 v 3.2 c 0,0.2209 0.1791,0.4 0.4,0.4 H 32 v 3.6 c 0,0.2209 0.1791,0.4 0.4,0.4 H 40 v 3.6 c 0,0.2209 0.1791,0.4 0.4,0.4 h 3.2 c 0.2209,0 0.4,0.1791 0.4,0.4 V 76 Z m -20,0 H 20.4 C 20.1791,76 20,75.8209 20,75.6 V 72.4 C 20,72.1791 20.1791,72 20.4,72 H 24 v 4 z m 108,-4 H 124 v -3.6 c 0,-0.2209 0.179,-0.4 0.4,-0.4 h 3.2 c 0.221,0 0.4,-0.1791 0.4,-0.4 v -3.2 c 0,-0.2209 0.179,-0.4 0.4,-0.4 h 3.2 c 0.221,0 0.4,0.1791 0.4,0.4 v 7.2 c 0,0.2209 -0.179,0.4 -0.4,0.4 z m -60,0 H 68 v -4 h 3.6 c 0.2209,0 0.4,0.1791 0.4,0.4 v 3.2 c 0,0.2209 -0.1791,0.4 -0.4,0.4 z m -8,0 H 60 V 68.4 C 60,68.1791 60.1791,68 60.4,68 H 64 v 4 z m 32,-4 H 92 V 64.4 C 92,64.1791 92.1791,64 92.4,64 h 3.2 c 0.2209,0 0.4,0.1791 0.4,0.4 V 68 Z m -8,0 H 84 V 64.4 C 84,64.1791 84.1791,64 84.4,64 h 3.2 c 0.2209,0 0.4,0.1791 0.4,0.4 V 68 Z m -20,0 H 64 V 56 h 7.6 c 0.2209,0 0.4,0.1791 0.4,0.4 V 60 H 68.4 C 68.1791,60 68,60.1791 68,60.4 V 68 Z m -20,0 H 40 V 64.4 C 40,64.1791 40.1791,64 40.4,64 h 3.2 C 43.8209,64 44,63.8209 44,63.6 V 60.4 C 44,60.1791 43.8209,60 43.6,60 H 40.4 C 40.1791,60 40,59.8209 40,59.6 V 56.4 C 40,56.1791 40.1791,56 40.4,56 h 3.2 C 43.8209,56 44,55.8209 44,55.6 V 52.4 C 44,52.1791 43.8209,52 43.6,52 H 36 V 48.4 C 36,48.1791 36.1791,48 36.4,48 h 11.2 c 0.2209,0 0.4,0.1791 0.4,0.4 v 7.2 c 0,0.2209 0.1791,0.4 0.4,0.4 H 52 v 4 H 48.4 C 48.1791,60 48,60.1791 48,60.4 V 68 Z m 72,-4 h -3.2 C 116.179,64 116,63.8209 116,63.6 V 60 h 3.6 c 0.221,0 0.4,0.1791 0.4,0.4 v 3.2 c 0,0.2209 -0.179,0.4 -0.4,0.4 z m -16,0 h -3.2 C 100.179,64 100,63.8209 100,63.6 V 60 h 3.6 c 0.221,0 0.4,0.1791 0.4,0.4 V 64 Z m 12,-4 h -3.2 c -0.221,0 -0.4,-0.1791 -0.4,-0.4 v -3.2 c 0,-0.2209 -0.179,-0.4 -0.4,-0.4 h -3.2 c -0.221,0 -0.4,-0.1791 -0.4,-0.4 v -3.2 c 0,-0.2209 0.179,-0.4 0.4,-0.4 h 3.2 c 0.221,0 0.4,-0.1791 0.4,-0.4 v -3.2 c 0,-0.2209 0.179,-0.4 0.4,-0.4 h 7.2 c 0.221,0 0.4,0.1791 0.4,0.4 V 52 h -3.6 c -0.221,0 -0.4,0.1791 -0.4,0.4 V 60 Z m -16,0 H 96.4 C 96.1791,60 96,59.8209 96,59.6 V 56.4 C 96,56.1791 96.1791,56 96.4,56 h 3.6 v 4 z m -8,0 H 88.4 C 88.1791,60 88,59.8209 88,59.6 V 56.4 C 88,56.1791 87.8209,56 87.6,56 H 84.4 C 84.1791,56 84,55.8209 84,55.6 V 48 h 3.6 c 0.2209,0 0.4,0.1791 0.4,0.4 v 3.2 c 0,0.2209 0.1791,0.4 0.4,0.4 H 92 v 7.6 c 0,0.2209 -0.1791,0.4 -0.4,0.4 z m -32,0 H 56 v -4 h 4 v 3.6 c 0,0.2209 -0.1791,0.4 -0.4,0.4 z m 68,-4 h -7.2 C 120.179,56 120,55.8209 120,55.6 V 52 h 7.6 c 0.221,0 0.4,0.1791 0.4,0.4 v 3.2 c 0,0.2209 -0.179,0.4 -0.4,0.4 z m -24,0 H 100 v -3.6 c 0,-0.2209 0.179,-0.4 0.4,-0.4 h 3.2 c 0.221,0 0.4,0.1791 0.4,0.4 v 3.2 c 0,0.2209 -0.179,0.4 -0.4,0.4 z m -40,0 H 60 V 48.4 C 60,48.1791 59.8209,48 59.6,48 H 56 V 40.4 C 56,40.1791 56.1791,40 56.4,40 h 3.2 c 0.2209,0 0.4,0.1791 0.4,0.4 v 3.2 c 0,0.2209 0.1791,0.4 0.4,0.4 H 64 v 3.6 c 0,0.2209 0.1791,0.4 0.4,0.4 h 7.2 C 71.8209,48 72,47.8209 72,47.6 V 40 h 3.6 c 0.2209,0 0.4,0.1791 0.4,0.4 v 3.2 c 0,0.2209 0.1791,0.4 0.4,0.4 h 3.2 C 79.8209,44 80,43.8209 80,43.6 V 28.4 C 80,28.1791 80.1791,28 80.4,28 h 3.2 c 0.2209,0 0.4,0.1791 0.4,0.4 v 3.2 c 0,0.2209 0.1791,0.4 0.4,0.4 h 7.2 c 0.2209,0 0.4,0.1791 0.4,0.4 v 3.2 C 92,35.8209 91.8209,36 91.6,36 H 84.4 C 84.1791,36 84,36.1791 84,36.4 V 48 H 76.4 C 76.1791,48 76,48.1791 76,48.4 V 52 H 64.4 C 64.1791,52 64,52.1791 64,52.4 V 56 Z m -8,0 H 52 V 48.4 C 52,48.1791 52.1791,48 52.4,48 H 56 v 8 z m 40,-4 H 92 V 48.4 C 92,48.1791 92.1791,48 92.4,48 H 96 v 3.6 c 0,0.2209 -0.1791,0.4 -0.4,0.4 z m 4,-4 H 96 V 40.4 C 96,40.1791 96.1791,40 96.4,40 h 3.2 c 0.2209,0 0.4,0.1791 0.4,0.4 v 7.2 c 0,0.2209 -0.1791,0.4 -0.4,0.4 z m 32,-4 H 104.4 C 104.179,44 104,43.8209 104,43.6 V 16.4 c 0,-0.2209 0.179,-0.4 0.4,-0.4 h 27.2 c 0.221,0 0.4,0.1791 0.4,0.4 v 27.2 c 0,0.2209 -0.179,0.4 -0.4,0.4 z m -40,0 H 88.4 C 88.1791,44 88,43.8209 88,43.6 V 40.4 C 88,40.1791 88.1791,40 88.4,40 h 3.2 c 0.2209,0 0.4,0.1791 0.4,0.4 v 3.2 c 0,0.2209 -0.1791,0.4 -0.4,0.4 z m -24,0 H 64 V 40.4 C 64,40.1791 64.1791,40 64.4,40 H 68 v 3.6 c 0,0.2209 -0.1791,0.4 -0.4,0.4 z m -16,0 H 48.4 C 48.1791,44 48,43.8209 48,43.6 V 40.4 C 48,40.1791 48.1791,40 48.4,40 h 3.2 c 0.2209,0 0.4,0.1791 0.4,0.4 v 3.2 c 0,0.2209 -0.1791,0.4 -0.4,0.4 z m -8,0 H 16.4 C 16.1791,44 16,43.8209 16,43.6 V 16.4 C 16,16.1791 16.1791,16 16.4,16 h 27.2 c 0.2209,0 0.4,0.1791 0.4,0.4 V 43.6 C 44,43.8209 43.8209,44 43.6,44 Z M 128,39.6 V 20.4 c 0,-0.2209 -0.179,-0.4 -0.4,-0.4 h -19.2 c -0.221,0 -0.4,0.1791 -0.4,0.4 v 19.2 c 0,0.2209 0.179,0.4 0.4,0.4 h 19.2 c 0.221,0 0.4,-0.1791 0.4,-0.4 z M 71.6,40 H 68 V 36.4 C 68,36.1791 68.1791,36 68.4,36 H 72 v 4 z M 40,39.6 V 20.4 C 40,20.1791 39.8209,20 39.6,20 H 20.4 C 20.1791,20 20,20.1791 20,20.4 v 19.2 c 0,0.2209 0.1791,0.4 0.4,0.4 H 39.6 C 39.8209,40 40,39.8209 40,39.6 Z M 123.6,36 H 112.4 C 112.179,36 112,35.8209 112,35.6 V 24.4 c 0,-0.2209 0.179,-0.4 0.4,-0.4 h 11.2 c 0.221,0 0.4,0.1791 0.4,0.4 v 11.2 c 0,0.2209 -0.179,0.4 -0.4,0.4 z m -24,0 H 96.4 C 96.1791,36 96,35.8209 96,35.6 V 32.4 C 96,32.1791 96.1791,32 96.4,32 h 3.2 c 0.2209,0 0.4,0.1791 0.4,0.4 v 3.2 c 0,0.2209 -0.1791,0.4 -0.4,0.4 z m -24,0 H 72 v -4 h 3.6 c 0.2209,0 0.4,0.1791 0.4,0.4 v 3.2 c 0,0.2209 -0.1791,0.4 -0.4,0.4 z m -12,0 H 60.4 C 60.1791,36 60,35.8209 60,35.6 V 24 h 4 v 3.6 c 0,0.2209 0.1791,0.4 0.4,0.4 H 72 v 4 H 64.4 C 64.1791,32 64,32.1791 64,32.4 v 3.2 c 0,0.2209 -0.1791,0.4 -0.4,0.4 z m -8,0 H 48.4 C 48.1791,36 48,35.8209 48,35.6 V 28.4 C 48,28.1791 48.1791,28 48.4,28 h 3.2 c 0.2209,0 0.4,0.1791 0.4,0.4 v 3.2 c 0,0.2209 0.1791,0.4 0.4,0.4 h 3.2 c 0.2209,0 0.4,0.1791 0.4,0.4 v 3.2 c 0,0.2209 -0.1791,0.4 -0.4,0.4 z m -20,0 H 24.4 C 24.1791,36 24,35.8209 24,35.6 V 24.4 C 24,24.1791 24.1791,24 24.4,24 h 11.2 c 0.2209,0 0.4,0.1791 0.4,0.4 v 11.2 c 0,0.2209 -0.1791,0.4 -0.4,0.4 z m 60,-8 H 92.4 C 92.1791,28 92,27.8209 92,27.6 V 24.4 C 92,24.1791 92.1791,24 92.4,24 H 96 v 3.6 c 0,0.2209 -0.1791,0.4 -0.4,0.4 z m -20,0 H 72 V 20.4 C 72,20.1791 71.8209,20 71.6,20 H 68.4 C 68.1791,20 68,20.1791 68,20.4 v 3.2 C 68,23.8209 67.8209,24 67.6,24 H 64 V 20.4 C 64,20.1791 63.8209,20 63.6,20 H 60.4 C 60.1791,20 60,20.1791 60,20.4 V 24 H 52.4 C 52.1791,24 52,23.8209 52,23.6 V 20.4 C 52,20.1791 52.1791,20 52.4,20 h 3.2 C 55.8209,20 56,19.8209 56,19.6 V 16.4 C 56,16.1791 56.1791,16 56.4,16 h 19.2 c 0.2209,0 0.4,0.1791 0.4,0.4 v 11.2 c 0,0.2209 -0.1791,0.4 -0.4,0.4 z m 24,-4 H 96 V 16.4 C 96,16.1791 96.1791,16 96.4,16 h 3.2 c 0.2209,0 0.4,0.1791 0.4,0.4 v 7.2 c 0,0.2209 -0.1791,0.4 -0.4,0.4 z m -16,0 H 80.4 C 80.1791,24 80,23.8209 80,23.6 V 20.4 C 80,20.1791 80.1791,20 80.4,20 h 3.2 c 0.2209,0 0.4,0.1791 0.4,0.4 v 3.2 c 0,0.2209 -0.1791,0.4 -0.4,0.4 z m 8,-4 H 88.4 C 88.1791,20 88,19.8209 88,19.6 V 16.4 C 88,16.1791 88.1791,16 88.4,16 h 3.2 c 0.2209,0 0.4,0.1791 0.4,0.4 v 3.2 c 0,0.2209 -0.1791,0.4 -0.4,0.4 z"
           id="path1" />
      </g>
    </g>
  </g>
</svg>
